# xmcd
#
# Track frame offsets:
#	150
#	12569
#	34285
#	56645
#	75743
#	90660
#	103557
#	126283
#	146678
#	178863
#	196278
#	231630
#	245324
#	265002
#	287242
#	309184
#
# Disc length: 4292 seconds
#
# Revision: 0
# Processed by: cddbd v1.5.1PL2 Copyright (c) Steve Scherf et al.
# Submitted via: dBpowerAMP V4.0
#
DISCID=e510c210
DTITLE=Eric Clapton - Crossroads
DYEAR=1900
DGENRE=
TTITLE0=Badge
TTITLE1=Presence Of The Lord
TTITLE2=White Room
TTITLE3=Crossroads
TTITLE4=Cant Find My Way Home
TTITLE5=Sleeping In The Ground
TTITLE6=Let It Rain
TTITLE7=Roll It Over
TTITLE8=Layla
TTITLE9=Mean Old World
TTITLE10=I Shot The Sheriff
TTITLE11=Whatcha Gonna Do
TTITLE12=Knockin On Heavens Door
TTITLE13=Let It Grow
TTITLE14=Motherless Children
TTITLE15=Better Make It Through Today
EXTD=
EXTT0=
EXTT1=
EXTT2=
EXTT3=
EXTT4=
EXTT5=
EXTT6=
EXTT7=
EXTT8=
EXTT9=
EXTT10=
EXTT11=
EXTT12=
EXTT13=
EXTT14=
EXTT15=
PLAYORDER=
